# xmcd
#
# Track frame offsets:
#	150
#	16138
#	31583
#	44267
#	56014
#	68016
#	81438
#	94147
#	107949
#	120760
#	134539
#	151649
#	167592
#	180432
#	195181
#	210441
#	226744
#	240858
#	256291
#	275187
#
# Disc length: 3851 seconds
#
# Revision: 1
# Processed by: cddbd v1.5.2PL0 Copyright (c) Steve Scherf et al.
# Submitted via: audiograbber 1.82.02
#
DISCID=f10f0914
DTITLE=Various Artist  - Country Radio - August 2018
DYEAR=2018
DGENRE=Country
TTITLE0=Luke Bryan - Sunrise, Sunburn, Sunset
TTITLE1=Maddie Poppe - Going Going Gone
TTITLE2=Everette - Slow Roll
TTITLE3=Dylan Schneider - How Does It Sound
TTITLE4=Ryan Montgomery - Drop A Tailgate
TTITLE5=Logan Mize - Better Off Gone
TTITLE6=JoAnna Lee - Grow Old With You
TTITLE7=Brett Eldredge - Love Someone
TTITLE8=Blackjack Billy - Straight Line Sober
TTITLE9=Little Big Town - Summer Fever
TTITLE10=Mark O'Connor Band (Ft. Zac Brown) - In My Blood
TTITLE11=Shari Rowe - Beach Town
TTITLE12=Stephen Martines - Beach Ball
TTITLE13=Lee Brice - Rumor
TTITLE14=Cody Jinks - Must Be The Whiskey
TTITLE15=Michael Ray - One That Got Away
TTITLE16=Harper Grae - Bloodline
TTITLE17=Jessie G - Army Ranger
TTITLE18=Darius Rucker, Jason Aldean, Luke Bryan, Charles Kelly - Straight To H
TTITLE18=ell
TTITLE19=Garth Brooks - All Day Long
EXTD=
EXTT0=
EXTT1=
EXTT2=
EXTT3=
EXTT4=
EXTT5=
EXTT6=
EXTT7=
EXTT8=
EXTT9=
EXTT10=
EXTT11=
EXTT12=
EXTT13=
EXTT14=
EXTT15=
EXTT16=
EXTT17=
EXTT18=
EXTT19=
PLAYORDER=
